<mxfile host="app.diagrams.net" modified="2023-11-10T19:23:56.364Z" agent="Mozilla/5.0 (Macintosh; Intel Mac OS X 10_15_7) AppleWebKit/537.36 (KHTML, like Gecko) Chrome/119.0.0.0 Safari/537.36" etag="geDKCTsoxvlcLQY3Q_FV" version="22.1.0" type="github">
  <diagram name="Page-1" id="QnDPWNosyGdadTyW6Ekd">
    <mxGraphModel dx="835" dy="1787" grid="1" gridSize="10" guides="1" tooltips="1" connect="1" arrows="1" fold="1" page="1" pageScale="1" pageWidth="850" pageHeight="1100" background="#FFFFFF" math="0" shadow="0">
      <root>
        <mxCell id="0" />
        <mxCell id="1" parent="0" />
        <mxCell id="WfwidvhYrzyNlVmAxbwn-6" value="PROPOSAL AND IMPACT" style="swimlane;whiteSpace=wrap;html=1;startSize=30;" parent="1" vertex="1">
          <mxGeometry x="10" y="-1090" width="640" height="290" as="geometry">
            <mxRectangle x="10" y="-1090" width="180" height="30" as="alternateBounds" />
          </mxGeometry>
        </mxCell>
        <mxCell id="WfwidvhYrzyNlVmAxbwn-4" value="&lt;h1&gt;How this application can help change things:&lt;/h1&gt;&lt;div&gt;- Make it easier for owners in tough situations to find a new safe and loving home for their animal(s).&lt;/div&gt;&lt;div&gt;&lt;br&gt;&lt;/div&gt;&lt;div&gt;- Make it easier for people who are looking for a new companion to find one that fits their household.&lt;/div&gt;&lt;div&gt;&lt;br&gt;&lt;/div&gt;&lt;div&gt;- Making it easier for future animal owners to find the right pet for their needs results in more animals being removed from bad situations, and less funding towards puppy mills.&lt;/div&gt;" style="text;html=1;strokeColor=none;fillColor=none;spacing=5;spacingTop=-20;whiteSpace=wrap;overflow=hidden;rounded=0;" parent="WfwidvhYrzyNlVmAxbwn-6" vertex="1">
          <mxGeometry x="280" y="30" width="310" height="230" as="geometry" />
        </mxCell>
        <mxCell id="AdRa6NuN1TQCRi0MgPPj-1" style="edgeStyle=orthogonalEdgeStyle;rounded=0;orthogonalLoop=1;jettySize=auto;html=1;" edge="1" parent="WfwidvhYrzyNlVmAxbwn-6" source="WfwidvhYrzyNlVmAxbwn-1">
          <mxGeometry relative="1" as="geometry">
            <mxPoint x="260" y="110" as="targetPoint" />
          </mxGeometry>
        </mxCell>
        <mxCell id="WfwidvhYrzyNlVmAxbwn-1" value="&lt;br&gt;&lt;font style=&quot;font-size: 24px;&quot;&gt;The Problem:&lt;br&gt;&lt;/font&gt;&lt;font style=&quot;font-size: 14px;&quot;&gt;- Kennel/Shelter Overcrowding&lt;br&gt;- Animal Abandonment&lt;br&gt;- Animal Euthanasia&lt;br&gt;- Profiting Puppy mills&lt;/font&gt;" style="text;html=1;strokeColor=none;fillColor=none;spacing=5;spacingTop=-20;whiteSpace=wrap;overflow=hidden;rounded=0;" parent="WfwidvhYrzyNlVmAxbwn-6" vertex="1">
          <mxGeometry x="20" y="40" width="190" height="140" as="geometry" />
        </mxCell>
        <mxCell id="AdRa6NuN1TQCRi0MgPPj-2" value="Vertical Container" style="swimlane;whiteSpace=wrap;html=1;" vertex="1" parent="1">
          <mxGeometry x="10" y="-780" width="640" height="200" as="geometry" />
        </mxCell>
      </root>
    </mxGraphModel>
  </diagram>
</mxfile>
